<svg width="1600" height="600" viewBox="0 0 1600 600" fill="none" xmlns="http://www.w3.org/2000/svg">
<path d="M477.784 349.452L516.088 227.257H546.968L585.271 349.452H559.846L552.091 323.852H510.476L502.878 349.452H477.784ZM516.262 301.895H546.323L531.301 248.239L516.279 301.895H516.262Z" fill="#124960"/>
<path d="M598.654 349.452V227.257H649.174C654.018 227.257 658.532 227.832 662.714 229C666.897 230.15 670.591 232.172 673.78 235.03C676.969 237.887 679.479 241.861 681.291 246.914C683.103 251.986 684.009 258.468 684.009 266.397C684.009 272.009 683.452 276.801 682.354 280.757C681.256 284.712 679.792 287.971 677.98 290.498C676.167 293.025 674.094 295.064 671.793 296.615C669.476 298.166 667.106 299.42 664.701 300.414L687.495 349.452H662.557L642.9 304.213C641.576 304.213 640.06 304.195 638.352 304.126C636.644 304.073 634.902 304.039 633.141 304.039H627.861C626.101 304.039 624.498 303.986 623.069 303.882V349.452H598.637H598.654ZM623.086 284.556H644.887C647.083 284.556 649.069 284.277 650.829 283.737C652.589 283.179 654.123 282.221 655.447 280.844C656.772 279.467 657.783 277.62 658.497 275.32C659.211 273.002 659.577 270.039 659.577 266.397C659.577 262.982 659.211 260.159 658.497 257.893C657.783 255.645 656.754 253.885 655.447 252.613C654.123 251.341 652.589 250.469 650.829 249.964C649.069 249.476 647.083 249.215 644.887 249.215H623.086V284.556Z" fill="#124960"/>
<path d="M736.69 350.288C726.896 350.288 719.072 348.998 713.252 346.402C707.414 343.823 703.196 339.222 700.617 332.618C698.038 326.013 696.731 316.881 696.731 305.206C696.731 293.53 697.934 283.91 700.356 277.306C702.778 270.701 706.856 266.083 712.572 263.434C718.288 260.785 726.06 259.479 735.854 259.479C744.654 259.479 751.712 260.367 756.992 262.127C762.272 263.887 766.106 266.972 768.459 271.381C770.829 275.79 772.014 282.011 772.014 290.045C772.014 295.987 770.829 300.692 768.459 304.16C766.089 307.628 762.76 310.103 758.473 311.584C754.186 313.065 749.115 313.814 743.277 313.814H720.989C721.215 318.328 721.895 321.935 723.045 324.636C724.195 327.337 726.339 329.254 729.493 330.422C732.63 331.572 737.178 332.147 743.121 332.147H769.051V346.506C764.764 347.395 760.059 348.232 754.936 349.068C749.812 349.887 743.731 350.305 736.69 350.305V350.288ZM720.675 299.263H740.82C744.114 299.263 746.536 298.601 748.087 297.277C749.621 295.952 750.405 293.582 750.405 290.184C750.405 286.995 749.917 284.433 748.924 282.499C747.93 280.582 746.397 279.188 744.306 278.369C742.214 277.55 739.409 277.132 735.889 277.132C732.142 277.132 729.179 277.759 726.966 279.031C724.77 280.303 723.167 282.534 722.174 285.723C721.181 288.912 720.693 293.425 720.693 299.263H720.675Z" fill="#124960"/>
<path d="M820.233 350.446C817.479 350.446 814.499 350.358 811.31 350.202C808.121 350.045 804.915 349.783 801.726 349.452C798.537 349.121 795.557 348.703 792.803 348.215C790.05 347.727 787.732 347.135 785.867 346.49V332.13H825.164C827.482 332.13 829.381 331.939 830.863 331.555C832.344 331.172 833.442 330.457 834.156 329.412C834.871 328.366 835.237 326.85 835.237 324.863V322.058C835.237 319.862 834.522 318.154 833.093 316.934C831.664 315.732 829.016 315.122 825.164 315.122H811.293C806.222 315.122 801.656 314.355 797.596 312.804C793.518 311.271 790.294 308.727 787.941 305.206C785.571 301.686 784.386 296.946 784.386 291.004V285.88C784.386 280.269 785.484 275.529 787.68 271.678C789.876 267.827 793.57 264.916 798.746 262.93C803.921 260.943 811.014 259.95 820.041 259.95C823.666 259.95 827.552 260.141 831.682 260.525C835.812 260.908 839.715 261.414 843.41 262.006C847.104 262.616 850.032 263.296 852.245 264.062V278.422H815.092C811.903 278.422 809.48 278.945 807.825 279.99C806.169 281.036 805.35 282.988 805.35 285.846V288.494C805.35 290.481 805.734 291.927 806.5 292.868C807.267 293.809 808.452 294.472 810.055 294.855C811.659 295.238 813.663 295.43 816.085 295.43H830.288C839.315 295.43 845.884 297.486 850.014 301.616C854.145 305.747 856.201 311.445 856.201 318.712V326.641C856.201 332.583 854.789 337.289 851.984 340.756C849.178 344.224 845.1 346.699 839.768 348.18C834.435 349.661 827.9 350.411 820.198 350.411L820.233 350.446Z" fill="#124960"/>
<path d="M871.415 388.591V260.786H891.891L895.846 269.203C897.938 267.547 900.255 265.979 902.782 264.497C905.309 263.016 908.062 261.796 911.042 260.873C914.022 259.932 917.159 259.479 920.453 259.479C925.838 259.479 930.543 260.524 934.568 262.615C938.594 264.706 941.852 267.739 944.397 271.695C946.924 275.65 948.806 280.477 950.008 286.141C951.228 291.805 951.82 298.165 951.82 305.206C951.82 314.668 950.879 322.824 949.015 329.638C947.15 336.469 943.926 341.662 939.36 345.234C934.795 348.807 928.486 350.602 920.453 350.602C916.27 350.602 912.001 350.114 907.662 349.12C903.305 348.127 899.384 346.698 895.864 344.834V388.591H871.432H871.415ZM912.524 330.474C915.051 330.474 917.473 329.794 919.791 328.418C922.108 327.041 923.938 324.532 925.315 320.907C926.691 317.282 927.371 312.054 927.371 305.223C927.371 298.392 926.744 293.408 925.472 289.626C924.199 285.827 922.474 283.126 920.278 281.54C918.083 279.937 915.486 279.153 912.524 279.153C909.108 279.153 905.971 279.711 903.113 280.809C900.255 281.906 897.833 283.004 895.846 284.102V326.205C898.042 327.529 900.639 328.575 903.601 329.341C906.581 330.108 909.544 330.492 912.524 330.492V330.474Z" fill="#124960"/>
<path d="M970.989 247.75C968.671 247.75 967.521 246.652 967.521 244.456V228.267C967.521 225.949 968.671 224.799 970.989 224.799H989.81C990.803 224.799 991.57 225.13 992.127 225.793C992.685 226.455 992.947 227.274 992.947 228.267V244.456C992.947 246.652 991.901 247.75 989.81 247.75H970.989ZM968.009 349.469V260.802H992.441V349.469H968.009Z" fill="#124960"/>
<path d="M1011.26 349.451V260.784H1030.08L1035.69 274.325C1038.88 270.247 1042.49 266.779 1046.52 263.921C1050.52 261.063 1055.3 259.634 1060.81 259.634C1062.01 259.634 1063.24 259.687 1064.52 259.791C1065.79 259.896 1066.96 260.122 1068.07 260.453V285.547C1066.42 285.321 1064.69 285.129 1062.86 284.972C1061.05 284.816 1059.31 284.728 1057.67 284.728C1054.48 284.728 1051.59 285.094 1049.01 285.809C1046.43 286.523 1044.06 287.569 1041.91 288.946C1039.77 290.322 1037.7 292.117 1035.73 294.313V349.468H1011.3L1011.26 349.451Z" fill="#124960"/>
<path d="M1096.63 350.444C1089.93 350.444 1084.47 348.457 1080.29 344.502C1076.11 340.546 1074.01 335.039 1074.01 327.999V320.07C1074.01 313.36 1076.38 307.819 1081.11 303.48C1085.83 299.123 1093.22 296.962 1103.24 296.962H1125.86V290.845C1125.86 288.092 1125.37 285.809 1124.38 283.997C1123.38 282.184 1121.54 280.86 1118.85 280.041C1116.15 279.222 1112.06 278.804 1106.55 278.804H1079.97V264.601C1084.26 263.277 1089.25 262.126 1094.91 261.133C1100.57 260.14 1107.44 259.652 1115.47 259.652C1122.84 259.652 1129.15 260.541 1134.38 262.301C1139.61 264.061 1143.56 267.093 1146.27 271.38C1148.97 275.667 1150.31 281.609 1150.31 289.207V349.468H1130.98L1127.03 340.058C1126.26 340.946 1124.94 341.922 1123.07 343.038C1121.19 344.136 1118.92 345.268 1116.22 346.418C1113.52 347.569 1110.49 348.544 1107.14 349.311C1103.78 350.078 1100.29 350.461 1096.65 350.461L1096.63 350.444ZM1109.02 333.436C1110.12 333.436 1111.36 333.296 1112.74 333.017C1114.11 332.739 1115.54 332.408 1117.02 332.024C1118.5 331.641 1119.88 331.257 1121.15 330.874C1122.43 330.491 1123.47 330.125 1124.29 329.794C1125.11 329.462 1125.63 329.236 1125.86 329.131V308.498L1110.99 309.492C1106.71 309.823 1103.54 310.921 1101.5 312.803C1099.46 314.667 1098.45 317.212 1098.45 320.401V324.025C1098.45 326.221 1098.92 328.051 1099.86 329.48C1100.8 330.909 1102.05 331.937 1103.66 332.53C1105.26 333.139 1107.04 333.436 1109.02 333.436Z" fill="#124960"/>
<path d="M1202.31 349.451C1195.48 349.451 1189.95 348.458 1185.72 346.471C1181.48 344.484 1178.43 341.191 1176.55 336.555C1174.67 331.937 1173.85 325.716 1174.08 317.892L1174.9 280.407H1161.03V264.723L1175.72 260.767L1179.03 236.004H1198.35V260.767H1219.16V280.425H1198.35V317.735C1198.35 320.157 1198.58 322.144 1199.02 323.677C1199.45 325.228 1200.1 326.465 1200.91 327.389C1201.73 328.33 1202.71 329.01 1203.81 329.445C1204.91 329.881 1206 330.16 1207.1 330.264L1218.32 331.258V349.416H1202.31V349.451Z" fill="#124960"/>
<path d="M1270.83 350.287C1263.56 350.287 1257.34 349.538 1252.17 348.057C1246.99 346.575 1242.77 344.066 1239.53 340.546C1236.29 337.026 1233.92 332.338 1232.44 326.517C1230.96 320.68 1230.21 313.465 1230.21 304.891C1230.21 295.864 1230.96 288.406 1232.44 282.516C1233.92 276.625 1236.29 272.007 1239.53 268.644C1242.77 265.281 1247.01 262.928 1252.25 261.551C1257.48 260.175 1263.67 259.495 1270.83 259.495C1277.99 259.495 1284.47 260.21 1289.65 261.639C1294.83 263.068 1299.03 265.472 1302.28 268.818C1305.53 272.182 1307.9 276.8 1309.38 282.69C1310.86 288.58 1311.61 295.986 1311.61 304.891C1311.61 313.796 1310.89 321.046 1309.46 326.936C1308.04 332.826 1305.72 337.479 1302.53 340.894C1299.34 344.31 1295.12 346.732 1289.89 348.161C1284.67 349.59 1278.31 350.305 1270.83 350.305V350.287ZM1270.83 330.804C1273.81 330.804 1276.3 330.526 1278.34 329.985C1280.38 329.428 1282.03 328.312 1283.29 326.605C1284.56 324.897 1285.52 322.283 1286.18 318.763C1286.84 315.242 1287.18 310.624 1287.18 304.891C1287.18 299.158 1286.84 294.4 1286.18 290.933C1285.52 287.465 1284.56 284.886 1283.29 283.178C1282.02 281.47 1280.38 280.337 1278.34 279.797C1276.3 279.239 1273.79 278.978 1270.83 278.978C1267.87 278.978 1265.51 279.257 1263.48 279.797C1261.44 280.355 1259.76 281.47 1258.44 283.178C1257.11 284.886 1256.16 287.465 1255.55 290.933C1254.94 294.4 1254.64 299.053 1254.64 304.891C1254.64 310.729 1254.94 315.242 1255.55 318.763C1256.16 322.283 1257.11 324.897 1258.44 326.605C1259.76 328.312 1261.44 329.445 1263.48 329.985C1265.51 330.543 1267.95 330.804 1270.83 330.804Z" fill="#124960"/>
<path d="M1327.8 349.451V260.784H1346.62L1352.23 274.325C1355.42 270.247 1359.03 266.779 1363.05 263.921C1367.06 261.063 1371.83 259.634 1377.34 259.634C1378.54 259.634 1379.78 259.687 1381.05 259.791C1382.32 259.896 1383.49 260.122 1384.61 260.453V285.547C1382.95 285.321 1381.23 285.129 1379.4 284.972C1377.58 284.816 1375.84 284.728 1374.2 284.728C1371.01 284.728 1368.12 285.094 1365.54 285.809C1362.96 286.523 1360.59 287.569 1358.45 288.946C1356.31 290.322 1354.23 292.117 1352.26 294.313V349.468H1327.83L1327.8 349.451Z" fill="#124960"/>
<path d="M1425.37 388.59L1434.95 349.45C1430 349.45 1425.65 348.509 1421.9 346.645C1418.15 344.78 1415.05 342.096 1412.58 338.629C1410.1 335.161 1408.2 330.839 1406.88 325.663L1390.2 260.767H1415.63L1429.65 320.697C1430.21 322.788 1430.93 324.443 1431.8 325.646C1432.67 326.866 1433.61 327.702 1434.6 328.208C1435.6 328.713 1436.5 329.027 1437.32 329.201C1438.14 329.375 1438.79 329.445 1439.22 329.445L1455.24 260.75H1480L1453.58 372.209L1445.65 388.556H1425.35L1425.37 388.59Z" fill="#124960"/>
<path fill-rule="evenodd" clip-rule="evenodd" d="M184.469 425.946C210.215 408.803 208.424 389.55 245.455 375.177C267.859 368.595 277.212 346.33 266.83 304.94C268.812 336.672 256.18 354.806 228.934 359.343C221.653 360.525 214.523 363.88 207.521 369.421C196.935 377.808 185.765 400.123 168.774 391.965C145.824 380.947 154.44 310.087 157.731 291.457C161.963 267.439 170.045 243.039 181.953 218.259C204.052 174.035 226.024 176.538 247.882 225.769C219.302 99.2482 130.409 192.868 121.196 327.675C119.124 357.92 114.232 434.346 163.297 433.329C170.21 433.19 177.263 430.712 184.469 425.908" fill="#00B5CB"/>
<path fill-rule="evenodd" clip-rule="evenodd" d="M352.812 426.199C327.066 409.056 328.87 389.804 291.826 375.431C269.422 368.848 260.069 346.584 270.452 305.194C268.469 336.926 281.101 355.06 308.347 359.597C315.616 360.779 322.758 364.133 329.76 369.674C340.346 378.061 351.516 400.389 368.507 392.218C391.457 381.2 382.841 310.34 379.55 291.71C375.318 267.692 367.236 243.293 355.316 218.512C333.216 174.288 311.244 176.792 289.399 226.023C317.967 99.5016 406.872 193.122 416.086 327.928C418.157 358.173 423.05 434.599 373.984 433.583C367.071 433.443 360.018 430.965 352.8 426.161L352.812 426.199Z" fill="#00B5CB"/>
<path d="M363.029 331.372C353.066 330.495 343.23 328.513 333.661 325.476L298.396 314.267C290.556 311.776 281.876 314.445 276.805 320.913L268.634 331.321L260.476 320.913C255.405 314.445 246.738 311.789 238.897 314.267L203.633 325.476C194.064 328.513 184.227 330.495 174.264 331.372L189.921 307.786C192.424 307.176 194.89 306.477 197.355 305.689L232.62 294.481C245.01 290.541 258.404 292.892 268.66 300.263C278.902 292.892 292.309 290.541 304.7 294.481L339.964 305.689C342.417 306.464 344.895 307.176 347.398 307.786L363.055 331.372H363.029Z" fill="#00B5CB"/>
<path d="M336.482 291.444C326.138 290.644 319.403 286.056 305.958 281.443C298.308 279.321 282.842 277.631 268.634 292.041C254.427 277.631 238.961 279.321 231.311 281.443C217.866 286.056 211.143 290.631 200.786 291.444L206.518 282.815L207.394 281.481L215.4 269.408L215.794 268.811C222.53 265.558 248.162 254.998 268.622 270.654C276.844 264.363 285.892 262.305 294.228 262.305C306.644 262.305 317.446 266.88 321.474 268.811L321.868 269.408L332.835 285.942L336.482 291.431V291.444Z" fill="#00B5CB"/>
<path d="M268.647 257.362L264.923 253.638C253.893 242.608 253.893 224.715 264.923 213.684L268.647 209.961L272.37 213.684C283.401 224.715 283.401 242.608 272.37 253.638L268.647 257.362Z" fill="#C0D119"/>
<path d="M282.32 255.519V251.706C282.32 238.604 292.944 227.968 306.059 227.968H309.871V231.78C309.871 244.882 299.248 255.519 286.133 255.519H282.32Z" fill="#C0D119"/>
<path d="M255.024 255.519V251.706C255.024 238.604 244.4 227.968 231.285 227.968H227.473V231.78C227.473 244.882 238.097 255.519 251.211 255.519H255.024Z" fill="#C0D119"/>
</svg>
