<svg width="1080" height="1080" viewBox="0 0 1080 1080" fill="none" xmlns="http://www.w3.org/2000/svg">
<path fill-rule="evenodd" clip-rule="evenodd" d="M358.012 812.511C413.528 775.546 409.664 734.032 489.513 703.041C537.822 688.847 557.99 640.839 535.603 551.591C539.878 620.014 512.64 659.116 453.891 668.898C438.189 671.447 422.817 678.681 407.719 690.628C384.893 708.713 360.807 756.831 324.17 739.239C274.683 715.481 293.261 562.689 300.358 522.518C309.483 470.729 326.911 418.117 352.586 364.684C400.238 269.325 447.616 274.723 494.747 380.878C433.12 108.066 241.444 309.935 221.578 600.613C217.112 665.829 206.562 830.624 312.36 828.432C327.267 828.13 342.475 822.787 358.012 812.429" fill="#00B5CB"/>
<path fill-rule="evenodd" clip-rule="evenodd" d="M721.004 813.058C665.488 776.093 669.379 734.579 589.503 703.587C541.193 689.393 521.026 641.385 543.413 552.138C539.138 620.56 566.376 659.662 625.125 669.445C640.799 671.993 656.199 679.227 671.297 691.174C694.123 709.26 718.209 757.405 754.845 739.785C804.333 716.028 785.754 563.235 778.657 523.064C769.532 471.275 752.105 418.663 726.402 365.23C678.75 269.872 631.373 275.27 584.269 381.424C645.868 108.612 837.571 310.481 857.437 601.159C861.904 666.376 872.454 831.17 766.655 828.978C751.749 828.677 736.541 823.333 720.977 812.975L721.004 813.058Z" fill="#00B5CB"/>
<path d="M743.034 608.585C721.551 606.694 700.342 602.42 679.709 595.871L603.669 571.702C586.762 566.332 568.046 572.086 557.113 586.033L539.494 608.476L521.902 586.033C510.969 572.086 492.281 566.359 475.374 571.702L399.334 595.871C378.7 602.42 357.491 606.694 336.008 608.585L369.767 557.727C375.165 556.412 380.481 554.905 385.797 553.206L461.837 529.038C488.554 520.543 517.435 525.613 539.549 541.506C561.634 525.613 590.543 520.543 617.26 529.038L693.3 553.206C698.589 554.878 703.932 556.412 709.33 557.727L743.089 608.585H743.034Z" fill="#00B5CB"/>
<path d="M685.792 522.491C663.487 520.764 648.964 510.872 619.973 500.925C603.477 496.349 570.129 492.705 539.494 523.778C508.859 492.705 475.511 496.349 459.015 500.925C430.024 510.872 415.528 520.737 393.196 522.491L405.554 503.885L407.445 501.008L424.708 474.976L425.557 473.688C440.08 466.673 495.35 443.902 539.467 477.661C557.196 464.097 576.706 459.658 594.681 459.658C621.453 459.658 644.744 469.523 653.431 473.688L654.28 474.976L677.928 510.626L685.792 522.463V522.491Z" fill="#00B5CB"/>
<path d="M539.521 449L531.492 440.971C507.707 417.186 507.707 378.605 531.492 354.82L539.521 346.791L547.549 354.82C571.334 378.605 571.334 417.186 547.549 440.971L539.521 449Z" fill="#C0D119"/>
<path d="M569.005 445.026V436.805C569.005 408.554 591.913 385.619 620.192 385.619H628.412V393.839C628.412 422.09 605.504 445.026 577.226 445.026H569.005Z" fill="#C0D119"/>
<path d="M510.146 445.026V436.805C510.146 408.554 487.238 385.619 458.96 385.619H450.739V393.839C450.739 422.09 473.647 445.026 501.926 445.026H510.146Z" fill="#C0D119"/>
</svg>
